<?xml version="1.0" encoding="UTF-8"?>
<svg width="50px" height="28px" viewBox="0 0 50 28" version="1.1" xmlns="http://www.w3.org/2000/svg" xmlns:xlink="http://www.w3.org/1999/xlink">
    <!-- Generator: Sketch 51.2 (57519) - http://www.bohemiancoding.com/sketch -->
    <defs>
        <polygon id="path-1" points="0 0 50 0 50 28 0 28"></polygon>
    </defs>
    <g id="Symbols" stroke="none" stroke-width="1" fill="none" fill-rule="evenodd">
        <g id="MENU" transform="translate(-37.000000, -29.000000)">
            <g id="Group" transform="translate(37.000000, 29.000000)">
                <g id="Group-3-Copy">
                    <mask id="mask-2" fill="white">
                        <use xlink:href="#path-1"></use>
                    </mask>
                    <g id="Clip-2"></g>
                    <path d="M15.4544666,9.23076318 C15.4544666,11.7794204 13.419315,13.8458695 10.9092585,13.8458695 L10.6062085,13.8458695 C9.76916154,13.8458695 9.09095838,14.5350529 9.09095838,15.3844218 L9.09095838,16.6411355 L9.09095838,17.2048126 L9.09095838,18.4615264 C9.09095838,19.3108953 9.76916154,20.0000786 10.6062085,20.0000786 C14.5301369,20.0000786 18.1727006,21.1824795 21.1863947,23.2043408 C21.4336055,23.3705815 21.6764792,23.5417764 21.9150159,23.7190265 C24.9558165,25.7832737 28.5419987,27.200173 32.4371944,27.7473361 C33.6190352,27.9135768 34.8290668,28 36.0602414,28 C43.7590129,28 50,21.6630362 50,13.8458695 C50,6.1993473 43.8945451,0 36.3632914,0 L25.757625,0 C24.9205781,0 24.242375,0.689183344 24.242375,1.53855227 L24.242375,5.84594818 L24.242375,14.113396 L24.242375,14.6996422 C24.8679916,15.0745095 25.4751759,15.4774506 26.0671806,15.9007589 C26.3767362,16.1539732 26.6982186,16.3956277 27.0305435,16.625172 C27.3157033,16.8216884 27.6106214,17.0071954 27.9109608,17.1855463 C28.0107125,17.2576574 28.1185961,17.3171077 28.2340695,17.3633468 C29.1546043,17.7679393 30.2090449,17.1183895 30.2941591,16.0950733 C30.2952434,16.0835135 30.2957855,16.0714033 30.2963276,16.0598435 C30.2984961,16.0279165 30.3028332,15.9965399 30.3028332,15.9640624 L30.3028332,5.84594818 L36.3632914,5.84594818 C40.7149595,5.84594818 44.2420497,9.42782998 44.2420497,13.8458695 C44.2420497,18.4340031 40.5788852,22.1535014 36.0602414,22.1535014 C31.9406044,22.1535014 28.1467868,20.8819251 25.1233343,18.7461172 C24.9335892,18.612354 24.7465548,18.4741871 24.5627731,18.3332678 C22.9483134,17.1772893 21.187479,16.2183777 19.3155081,15.4857075 C20.5033124,13.9262376 21.2118748,11.9709826 21.2118748,9.84618409 L21.2118748,9.23076318 C21.2118748,4.1328982 17.1421137,0 12.1209164,0 L1.51525008,0 C0.678203168,0 0,0.689183344 0,1.53855227 L0,26.1537373 C0,27.0031062 0.678203168,27.6922895 1.51525008,27.6922895 L2.5252361,27.6922895 L3.53522211,27.6922895 L4.54520812,27.6922895 C5.38225504,27.6922895 6.06045821,27.0031062 6.06045821,26.1537373 L6.06045821,5.84594818 L12.1209164,5.84594818 C13.9619859,5.84594818 15.4544666,7.36138088 15.4544666,9.23076318" id="Fill-1" fill="#005034" mask="url(#mask-2)"></path>
                </g>
            </g>
        </g>
    </g>
</svg>
