<?xml version="1.0" encoding="UTF-8"?>
<svg width="208px" height="164px" viewBox="0 0 208 164" version="1.1" xmlns="http://www.w3.org/2000/svg" xmlns:xlink="http://www.w3.org/1999/xlink">
    <title>Group</title>
    <desc>Created with Sketch.</desc>
    <defs>
        <filter x="-8.2%" y="-7.2%" width="116.4%" height="116.0%" filterUnits="objectBoundingBox" id="filter-1">
            <feOffset dx="0" dy="2" in="SourceAlpha" result="shadowOffsetOuter1"></feOffset>
            <feGaussianBlur stdDeviation="6" in="shadowOffsetOuter1" result="shadowBlurOuter1"></feGaussianBlur>
            <feColorMatrix values="0 0 0 0 0   0 0 0 0 0   0 0 0 0 0  0 0 0 0.162052763 0" type="matrix" in="shadowBlurOuter1" result="shadowMatrixOuter1"></feColorMatrix>
            <feMerge>
                <feMergeNode in="shadowMatrixOuter1"></feMergeNode>
                <feMergeNode in="SourceGraphic"></feMergeNode>
            </feMerge>
        </filter>
        <polygon id="path-2" points="0 0 184 0 184 102 0 102"></polygon>
    </defs>
    <g id="Page-1" stroke="none" stroke-width="1" fill="none" fill-rule="evenodd">
        <g id="Login" transform="translate(-256.000000, -237.000000)">
            <g id="Group-2" filter="url(#filter-1)" transform="translate(244.000000, 247.000000)">
                <g id="Group" transform="translate(24.000000, 0.000000)">
                    <g id="Group-3">
                        <mask id="mask-3" fill="white">
                            <use xlink:href="#path-2"></use>
                        </mask>
                        <g id="Clip-2"></g>
                        <path d="M56.8724371,33.6263516 C56.8724371,42.9107459 49.3830791,50.4385248 40.1460712,50.4385248 L39.0308471,50.4385248 C35.9505145,50.4385248 33.4547268,52.9491212 33.4547268,56.0432509 L33.4547268,60.6212794 L33.4547268,62.6746746 L33.4547268,67.2527032 C33.4547268,70.3468329 35.9505145,72.8574293 39.0308471,72.8574293 C53.4709039,72.8574293 66.8755381,77.1647466 77.9659326,84.5300987 C78.8756682,85.1356899 79.7694435,85.7593284 80.6472585,86.405025 C91.8374047,93.9247828 105.034555,99.0863445 119.368875,101.079582 C123.71805,101.685173 128.170966,102 132.701688,102 C161.033167,102 184,78.9153462 184,50.4385248 C184,22.5833366 161.531926,0 133.816912,0 L94.7880602,0 C91.7077275,0 89.2119398,2.51059647 89.2119398,5.60472614 L89.2119398,21.2959541 L89.2119398,51.4130854 L89.2119398,53.5486966 C91.5142092,54.9142846 93.7486474,56.3821413 95.9272246,57.924193 C97.0663891,58.8466166 98.2494443,59.7269296 99.4724002,60.5631266 C100.521788,61.2790076 101.607087,61.9547832 102.712336,62.6044902 C103.079422,62.8671804 103.476434,63.0837495 103.901376,63.252192 C107.288944,64.7260646 111.169285,62.3598474 111.482506,58.6320528 C111.486496,58.5899422 111.488491,58.5458263 111.490486,58.5037156 C111.498466,58.3874101 111.514426,58.2731097 111.514426,58.1547989 L111.514426,21.2959541 L133.816912,21.2959541 C149.831051,21.2959541 162.810743,34.3442378 162.810743,50.4385248 C162.810743,67.1524397 149.330297,80.7020407 132.701688,80.7020407 C117.541424,80.7020407 103.580175,76.0698699 92.4538703,68.2894271 C91.7556083,67.8021468 91.0673216,67.2988244 90.391005,66.7854756 C84.4497934,62.5744112 77.9699227,59.081233 71.0810699,56.4122203 C75.4521897,50.731294 78.0596992,43.6085794 78.0596992,35.868242 L78.0596992,33.6263516 C78.0596992,15.0555577 63.0829782,0 44.6049724,0 L5.57612031,0 C2.49578766,0 0,2.51059647 0,5.60472614 L0,95.2743286 C0,98.3684583 2.49578766,100.879055 5.57612031,100.879055 L9.29286884,100.879055 L13.0096174,100.879055 L16.7263659,100.879055 C19.8066985,100.879055 22.3024862,98.3684583 22.3024862,95.2743286 L22.3024862,21.2959541 L44.6049724,21.2959541 C51.3801082,21.2959541 56.8724371,26.8164589 56.8724371,33.6263516" id="Fill-1" fill="#FFFFFF" mask="url(#mask-3)"></path>
                    </g>
                    <g id="Group-33" transform="translate(1.000000, 117.000000)" fill="#FEFEFE">
                        <path d="M3.55066825,8.45806452 L5.98883438,8.45806452 C7.29013703,8.45806452 8.18947725,7.67610514 8.18947725,6.35185185 C8.18947725,5.00119474 7.29013703,4.26798088 5.98883438,4.26798088 L3.55066825,4.26798088 L3.55066825,8.45806452 Z M0,2.84623656 C0,1.71087216 0.639485705,1 1.82304179,1 L5.98883438,1 C9.63288784,1 11.8822534,2.63500597 11.8822534,6.35185185 C11.8822534,8.95567503 9.9171037,10.4464755 7.50329893,10.8262843 L11.5269836,15.1341697 C11.8578921,15.4896057 12,15.8450418 12,16.1761051 C12,17.1002389 11.265099,18 10.2256809,18 C9.79935713,18 9.23092539,17.8334528 8.8512942,17.3845878 L3.59736085,11.0151732 L3.55066825,11.0151732 L3.55066825,16.1517324 C3.55066825,17.3358423 2.79343597,18 1.77634918,18 C0.757232279,18 0,17.3358423 0,16.1517324 L0,2.84623656 Z" id="Fill-1"></path>
                        <path d="M19.0350175,14.9135252 C20.7898949,14.9135252 21.6323162,13.1372519 21.6323162,11.5230035 C21.6323162,9.90875519 20.813907,8.08647484 19.0350175,8.08647484 C17.188094,8.08647484 16.3676838,9.90875519 16.3676838,11.5230035 C16.3676838,13.1372519 17.2101051,14.9135252 19.0350175,14.9135252 Z M25,15.6616403 C25,16.5277735 25,17.8599785 23.3871936,17.8599785 C22.4047024,17.8599785 22.0065033,17.3218957 21.7723862,16.433759 C20.905953,17.4619172 19.8534267,18 18.5667834,18 C15.4092046,18 13,15.3115864 13,11.5230035 C13,7.82843514 15.4792396,5 18.5667834,5 C19.8074037,5 21.024012,5.4900754 21.7723862,6.54223727 C21.8664332,5.7241114 22.5667834,5.14002154 23.3871936,5.14002154 C25,5.14002154 25,6.4722265 25,7.33635944 L25,15.6616403 Z" id="Fill-3"></path>
                        <path d="M28.2217529,7.0103557 C28.2217529,5.87370554 28.9630412,5.11593877 30,5.11593877 C31.0369588,5.11593877 31.7782471,5.87370554 31.7782471,7.0103557 L31.7782471,16.1055831 C31.7782471,17.2422332 31.0369588,18 30,18 C28.9630412,18 28.2217529,17.2422332 28.2217529,16.1055831 L28.2217529,7.0103557 Z M32,1.87010356 C32,2.93786583 31.1108765,3.8374606 30,3.8374606 C28.937698,3.8374606 28,2.91355245 28,1.87010356 C28,0.899594777 28.937698,0 30,0 C31.062302,0 32,0.877307519 32,1.87010356 Z" id="Fill-5"></path>
                        <path d="M39.0350175,14.9135252 C40.7898949,14.9135252 41.6323162,13.1372519 41.6323162,11.5230035 C41.6323162,9.90875519 40.811906,8.08647484 39.0350175,8.08647484 C37.186093,8.08647484 36.3676838,9.90875519 36.3676838,11.5230035 C36.3676838,13.1372519 37.2101051,14.9135252 39.0350175,14.9135252 Z M45,15.6616403 C45,16.5277735 45,17.8599785 43.3851926,17.8599785 C42.4047024,17.8599785 42.0065033,17.3218957 41.7723862,16.433759 C40.905953,17.4619172 39.8534267,18 38.5667834,18 C35.4092046,18 33,15.3115864 33,11.5230035 C33,7.82843514 35.4792396,5 38.5667834,5 C39.8074037,5 41.024012,5.4900754 41.7723862,6.54223727 C41.8664332,5.7241114 42.5667834,5.14002154 43.3851926,5.14002154 C45,5.14002154 45,6.4722265 45,7.33635944 L45,15.6616403 Z" id="Fill-7"></path>
                        <path d="M51.5294958,14.7043094 L53.9051564,14.7043094 C56.9407228,14.7043094 58.3285245,12.4354781 58.3285245,9.57001313 C58.3285245,6.51581712 56.9167262,4.29366122 53.6711898,4.29366122 L51.5294958,4.29366122 L51.5294958,14.7043094 Z M48,2.83860571 C48,1.74071863 48.7538923,1 49.8117412,1 L53.7171833,1 C58.9884302,1 62,4.43774621 62,9.73845052 C62,14.7509848 58.8004571,18 53.9531496,18 L49.8577346,18 C49.0818455,18 48,17.5697744 48,16.2080697 L48,2.83860571 Z" id="Fill-9"></path>
                        <path d="M64,6.72133983 C64,5.57446139 64.83864,5 65.633837,5 C66.4724771,5 67.1807879,5.33527284 67.1807879,6.43513131 L67.224231,6.43513131 C67.8211009,5.4783771 68.4614139,5 69.4549379,5 C70.227469,5 71,5.59899355 71,6.83991194 C71,7.96430256 70.0499191,8.03585469 69.1017269,8.5142318 C68.151646,8.99056455 67.1807879,9.44645384 67.1807879,10.8079887 L67.1807879,16.0885359 C67.1807879,17.2354144 66.517809,18 65.590394,18 C64.662979,18 64,17.2354144 64,16.0885359 L64,6.72133983 Z" id="Fill-11"></path>
                        <path d="M75.3495773,11.524 C75.3495773,13.138 76.1869717,14.914 78.0009945,14.914 C79.8150174,14.914 80.6524117,13.138 80.6524117,11.524 C80.6524117,9.91 79.8388861,8.088 78.0009945,8.088 C76.1631029,8.088 75.3495773,9.91 75.3495773,11.524 M84,11.524 C84,15.03 81.6051716,18 78.0009945,18 C74.3968175,18 72,15.03 72,11.524 C72,8.11 74.4664346,5 78.0009945,5 C81.5355545,5 84,8.11 84,11.524" id="Fill-13"></path>
                        <path d="M91.987996,8.11822162 C90.2334111,8.11822162 89.369123,9.96126642 89.369123,11.5436174 C89.369123,13.3624116 90.2334111,15.0154934 91.987996,15.0154934 C93.7885962,15.0154934 94.630877,13.3159313 94.630877,11.6608286 C94.630877,10.0077467 93.8366122,8.11822162 91.987996,8.11822162 Z M98,16.8585382 C98,20.9447625 95.357119,23 91.5198399,23 C90.1393798,23 86.21007,22.3149208 86.21007,20.4496463 C86.21007,19.8110475 86.9123041,18.9622769 87.5665222,18.9622769 C88.642881,18.9622769 89.8352784,20.0232401 91.777926,20.0232401 C93.4144715,20.0232401 94.630877,19.0552375 94.630877,17.3314247 L94.630877,16.5271135 L94.5848616,16.5271135 C93.8826275,17.567868 92.7362454,18.1337151 91.1937312,18.1337151 C87.6605535,18.1337151 86,14.9932637 86,11.6143483 C86,8.18895251 88.1527176,5 91.5438479,5 C92.6902301,5 94.0006669,5.51936679 94.630877,6.55810037 C94.840947,5.66082856 95.3791264,5.14146177 96.3154385,5.14146177 C97.2977659,5.14146177 98,5.89727181 98,7.03098686 L98,16.8585382 Z" id="Fill-15"></path>
                        <path d="M106.035018,14.9135252 C107.789895,14.9135252 108.632316,13.1372519 108.632316,11.5230035 C108.632316,9.90875519 107.811906,8.08647484 106.035018,8.08647484 C104.186093,8.08647484 103.367684,9.90875519 103.367684,11.5230035 C103.367684,13.1372519 104.210105,14.9135252 106.035018,14.9135252 Z M112,15.6616403 C112,16.5277735 112,17.8599785 110.385193,17.8599785 C109.404702,17.8599785 109.006503,17.3218957 108.772386,16.433759 C107.905953,17.4619172 106.853427,18 105.566783,18 C102.409205,18 100,15.3115864 100,11.5230035 C100,7.82843514 102.47924,5 105.566783,5 C106.807404,5 108.024012,5.4900754 108.772386,6.54223727 C108.866433,5.7241114 109.566783,5.14002154 110.385193,5.14002154 C112,5.14002154 112,6.4722265 112,7.33635944 L112,15.6616403 Z" id="Fill-17"></path>
                        <path d="M121.403623,8.928 C120.804508,8.928 119.585422,7.946 118.544554,7.946 C117.96819,7.946 117.458184,8.228 117.458184,8.882 C117.458184,10.448 123,10.214 123,14.048 C123,16.292 121.20455,18 118.455446,18 C116.659996,18 114,16.924 114,15.404 C114,14.89 114.487255,13.908 115.374552,13.908 C116.616389,13.908 117.170002,15.054 118.67727,15.054 C119.65178,15.054 119.939962,14.726 119.939962,14.096 C119.939962,12.552 114.400042,12.786 114.400042,8.928 C114.400042,6.59 116.193596,5 118.720876,5 C120.296398,5 122.711818,5.772 122.711818,7.432 C122.711818,8.204 122.156309,8.928 121.403623,8.928" id="Fill-19"></path>
                        <path d="M125.221753,7.0103557 C125.221753,5.87370554 125.963041,5.11593877 127,5.11593877 C128.036959,5.11593877 128.776135,5.87370554 128.776135,7.0103557 L128.776135,16.1055831 C128.776135,17.2422332 128.036959,18 127,18 C125.963041,18 125.221753,17.2422332 125.221753,16.1055831 L125.221753,7.0103557 Z M129,1.87010356 C129,2.93786583 128.110876,3.8374606 127,3.8374606 C125.937698,3.8374606 125,2.91355245 125,1.87010356 C125,0.899594777 125.937698,0 127,0 C128.062302,0 129,0.877307519 129,1.87010356 Z" id="Fill-21"></path>
                        <path d="M131,1.85536325 C131,0.742145298 131.625297,0 132.5,0 C133.374703,0 134,0.742145298 134,1.85536325 L134,16.1446368 C134,17.2578547 133.374703,18 132.5,18 C131.625297,18 131,17.2578547 131,16.1446368 L131,1.85536325 Z" id="Fill-23"></path>
                        <path d="M152.853608,3.31032853 C152.853608,4.21035216 152.280411,5.01997164 151.377483,5.01997164 C150.472639,5.01997164 149.767166,4.32687308 148.444406,4.32687308 C147.497386,4.32687308 146.636633,4.85724415 146.636633,5.82758213 C146.636633,8.20621602 154,6.68340818 154,12.6420468 C154,15.9448121 151.398571,18 148.356222,18 C146.659638,18 143,17.5841409 143,15.414441 C143,14.5124084 143.573196,13.7731033 144.478041,13.7731033 C145.513245,13.7731033 146.747822,14.6731269 148.179854,14.6731269 C149.63489,14.6731269 150.428547,13.8193099 150.428547,12.6882534 C150.428547,9.96206571 143.06518,11.6034035 143.06518,6.24344127 C143.06518,3.00898133 145.601429,1 148.53259,1 C149.767166,1 152.853608,1.48617348 152.853608,3.31032853" id="Fill-25"></path>
                        <path d="M158,14 C159.10307,14 160,14.8974218 160,16.0010971 C160,17.1025782 159.10307,18 158,18 C156.89693,18 156,17.1025782 156,16.0010971 C156,14.8974218 156.89693,14 158,14" id="Fill-27"></path>
                        <path d="M166.897272,11.3862958 L171.14755,11.3862958 L169.066258,4.63256536 L169.021437,4.63256536 L166.897272,11.3862958 Z M166.651726,2.93398591 C167.031737,1.8624806 167.90284,1 169.044822,1 C170.229677,1 171.057906,1.81580518 171.437918,2.93398591 L175.820713,15.6012892 C175.955178,15.9746926 176,16.2993912 176,16.4637698 C176,17.3708965 175.2848,18 174.45657,18 C173.517261,18 173.047606,17.4885997 172.823497,16.7884684 L172.153118,14.6008117 L165.934577,14.6008117 L165.264198,16.7661454 C165.042038,17.4885997 164.570434,18 163.65451,18 C162.760022,18 162,17.3018981 162,16.370419 C162,15.9970156 162.11108,15.7169631 162.155902,15.6012892 L166.651726,2.93398591 Z" id="Fill-29"></path>
                        <path d="M180,14 C181.10307,14 182,14.8974218 182,16.0010971 C182,17.1025782 181.10307,18 180,18 C178.89693,18 178,17.1025782 178,16.0010971 C178,14.8974218 178.89693,14 180,14" id="Fill-31"></path>
                    </g>
                </g>
            </g>
        </g>
    </g>
</svg>