<svg width="35" height="35" viewBox="0 0 35 35" fill="none" xmlns="http://www.w3.org/2000/svg">
<path d="M15.35 15.35C15.35 12.9752 17.2752 11.05 19.65 11.05C22.0249 11.05 23.95 12.9752 23.95 15.35C23.95 17.7249 22.0249 19.65 19.65 19.65C18.462 19.65 17.39 19.1711 16.6095 18.3906C15.829 17.6101 15.35 16.5381 15.35 15.35Z" fill="#187330"/>
<path fill-rule="evenodd" clip-rule="evenodd" d="M17.5 34.7C26.9993 34.7 34.7 26.9993 34.7 17.5C34.7 8.00075 26.9993 0.300049 17.5 0.300049C8.00075 0.300049 0.300049 8.00075 0.300049 17.5C0.300049 26.9993 8.00075 34.7 17.5 34.7ZM19.65 6.75005C14.9004 6.75005 11.05 10.6004 11.05 15.35C11.05 16.944 11.485 18.4383 12.2411 19.7185L7.37977 24.5798C6.54014 25.4194 6.54014 26.7807 7.37977 27.6203C8.21939 28.46 9.5807 28.46 10.4203 27.6203L15.2816 22.759C16.5618 23.5151 18.0561 23.95 19.65 23.95C24.3997 23.95 28.25 20.0997 28.25 15.35C28.25 10.6004 24.3997 6.75005 19.65 6.75005Z" fill="#187330"/>
</svg>
