<svg id="Camada_1" data-name="Camada 1" xmlns="http://www.w3.org/2000/svg" viewBox="0 0 1954.03 1070.35"><defs><style>.cls-1{fill:#fff;}</style></defs><path class="cls-1" d="M2028.9,1131.7a28,28,0,1,1,28.37-28A28.19,28.19,0,0,1,2028.9,1131.7Z" transform="translate(-103.24 -61.35)"/><path class="cls-1" d="M236,363.51c-40.13,0-73.94-16-97.82-46.34C117,290.28,105.33,254,105.33,214.92c0-73.94,42-148.56,135.83-148.56,60.13,0,103.67,30.68,103.67,51.36,0,13.18-10.09,23.11-23.45,23.11-8.64,0-15.76-5.06-24-10.93-12.78-9.09-28.71-20.4-58.58-20.4-57.06,0-82.61,52.95-82.61,105.43,0,48.64,22.06,105.47,84.22,105.47C294.77,320.4,315,273,315,243.17v-9.81H272.54c-14.49,0-23.84-8.92-23.84-22.73S258,187.9,272.54,187.9h58.77c22.54,0,32.18,10.42,32.18,34.87C363.49,314.84,319.4,363.51,236,363.51Z" transform="translate(-103.24 -61.35)"/><path class="cls-1" d="M509.56,363.51c-80.38,0-108.9-64.09-108.9-119,0-78.09,53.73-119,106.82-119,64.24,0,102.63,57.76,102.63,113.62,0,17.73-9,26.34-27.54,26.34H451.89c2.88,31.8,25.49,52.69,58.09,52.69,29.43,0,44.37-11.53,55.28-19.94,6.76-5.21,12.58-9.7,19.81-9.7,9.92,0,20.45,8.07,20.45,23.05C605.51,335.86,554.41,363.51,509.56,363.51Zm49.28-139.15c-2.39-23.69-16.91-53.5-51.36-53.5-1.19,0-2.1-.06-3-.06-40.38,0-50.19,33.2-52.4,53.56Z" transform="translate(-103.24 -61.35)"/><path class="cls-1" d="M822.44,363.51c-15.23,0-25.45-10.59-25.45-26.36V217.78c0-34.64-23.84-46.93-44.22-46.93s-44.22,12.29-44.22,46.93V337.15c0,15.76-10.23,26.36-25.47,26.36s-25.45-10.59-25.45-26.36V151.91c0-15.76,10.23-26.36,25.45-26.36,13,0,22.37,7.75,24.83,19.83,15.06-12.88,34.34-19.83,55.68-19.83,41.95,0,84.28,27.88,84.28,90.17V337.14C847.88,352.91,837.67,363.51,822.44,363.51Z" transform="translate(-103.24 -61.35)"/><path class="cls-1" d="M933.39,363.51c-15.23,0-25.45-10.59-25.45-26.36V173.33H900c-15.7,0-25.45-8.69-25.45-22.65S884.32,128,900,128h7.92V87.69c0-15.76,10.21-26.34,25.45-26.34s25.45,10.57,25.45,26.34V128h7.92c15.7,0,25.47,8.69,25.47,22.65s-9.77,22.65-25.47,22.65h-7.92V337.15C958.83,352.91,948.62,363.51,933.39,363.51Z" transform="translate(-103.24 -61.35)"/><path class="cls-1" d="M1114.44,363.51c-80.38,0-108.9-64.09-108.9-119,0-78.09,53.73-119,106.8-119,64.26,0,102.65,57.76,102.65,113.62,0,17.73-9,26.34-27.54,26.34H1056.77c2.88,31.8,25.49,52.69,58.07,52.69,29.45,0,44.39-11.53,55.3-19.94,6.76-5.21,12.58-9.7,19.81-9.7,9.92,0,20.45,8.07,20.45,23.05C1210.39,335.86,1159.27,363.51,1114.44,363.51Zm49.28-139.15c-2.39-23.69-16.91-53.5-51.38-53.5-1.17,0-2.08-.06-3-.06-40.36,0-50.17,33.2-52.37,53.56Z" transform="translate(-103.24 -61.35)"/><path class="cls-1" d="M1244.57,412.9c-13.11,0-23.79-10.15-23.79-22.63,0-5.64,1.5-10.78,5.34-18.37l23.39-45.34c3.83-7.18,10.17-19.05,25.93-19.05,13.11,0,23.79,10.15,23.79,22.65,0,5.64-1.5,10.76-5.34,18.35l-23.39,45.34C1266.67,401,1260.35,412.9,1244.57,412.9Z" transform="translate(-103.24 -61.35)"/><path class="cls-1" d="M189.68,747c-41.57,0-86.44-15.64-86.44-40.87,0-14.47,8.92-24.6,21.72-24.6,6.27,0,12,3.33,19.34,7.56,11,6.36,24.7,14.26,45.78,14.26,30.53,0,51.87-20.87,51.87-50.76,0-24.79-21-33.16-55.19-44.81-35.95-12.2-80.7-27.42-80.7-82.14,0-38.33,36.67-79.34,91.27-79.34,37.27,0,77.18,15.93,77.18,39.66a21.93,21.93,0,0,1-22.1,22.23c-8.28,0-14.3-3.81-20.09-7.5-8-5-17-10.74-36.23-10.74-22.71,0-38.58,13.69-38.58,33.31,0,22,20,30,52.65,41.38,37.1,12.9,83.24,29,83.24,86.38C293.41,714.07,241.23,747,189.68,747Z" transform="translate(-103.24 -61.35)"/><path class="cls-1" d="M514.15,747c-11.33,0-22.82-7.54-24.09-22-15.08,14.47-33.58,22-54.34,22C367,747,331,687.19,331,628.08s36-119,104.73-119c20.64,0,37.92,6.44,54.51,20.62,1.84-13.56,12.94-20.62,23.92-20.62,11.74,0,24.2,8.64,24.2,24.68V722.34C538.35,738.37,525.89,747,514.15,747ZM435.72,554.38c-39.73,0-53.81,39.68-53.81,73.69s14.09,73.69,53.81,73.69,53.81-39.7,53.81-73.69S475.44,554.38,435.72,554.38Z" transform="translate(-103.24 -61.35)"/><path class="cls-1" d="M681.84,747c-70.13,0-95.11-48.69-95.11-94.28V535.44c0-15.74,10.21-26.33,25.45-26.33s25.45,10.59,25.45,26.33V651.52c0,34.26,14,50.23,44.22,50.23s44.22-16,44.22-50.23V535.44c0-15.74,10.23-26.33,25.45-26.33S777,519.7,777,535.44V652.75C777,698.35,752,747,681.84,747ZM651.39,494.7c-15,0-22.95-14.11-22.95-24.3,0-6.53,3.31-15.61,19.11-21.74l47.86-19.3c7.88-3.2,12-4.24,16.89-4.24,15,0,22.94,14.11,22.94,24.3,0,6.55-3.33,15.61-19.11,21.74l-47.88,19.32C660.5,493.62,656.24,494.7,651.39,494.7Z" transform="translate(-103.24 -61.35)"/><path class="cls-1" d="M996,747c-12.46,0-21.57-7.1-24.47-18.31-12.65,12.16-30.72,18.31-54,18.31-50.59,0-101.8-40.87-101.8-119s51.21-119,101.8-119a81.12,81.12,0,0,1,53,19.49V439.14c0-15.76,10.21-26.36,25.45-26.36s25.45,10.59,25.45,26.36V720.69C1021.41,736.44,1011.2,747,996,747ZM920.46,554.38c-39.73,0-53.81,39.68-53.81,73.69s14.09,73.69,53.81,73.69,53.81-39.7,53.81-73.69S960.18,554.38,920.46,554.38Z" transform="translate(-103.24 -61.35)"/><path class="cls-1" d="M1174.09,747c-80.38,0-108.88-64.09-108.88-119,0-78.09,53.73-119,106.8-119,64.24,0,102.63,57.76,102.63,113.62,0,17.71-9,26.34-27.54,26.34H1116.42c2.88,31.8,25.49,52.69,58.09,52.69,29.43,0,44.37-11.53,55.28-19.94,6.76-5.21,12.61-9.7,19.81-9.7,9.92,0,20.45,8.07,20.45,23C1270,719.4,1218.94,747,1174.09,747Zm49.28-139.13c-2.39-23.69-16.91-53.52-51.36-53.52-1.19,0-2.1,0-3,0-40.38,0-50.19,33.2-52.4,53.56Z" transform="translate(-103.24 -61.35)"/><path class="cls-1" d="M1511.13,747c-80.38,0-108.9-64.09-108.9-119,0-78.09,53.75-119,106.82-119,64.24,0,102.63,57.76,102.63,113.62,0,17.71-9,26.34-27.54,26.34H1453.46c2.88,31.8,25.49,52.69,58.09,52.69,29.43,0,44.37-11.53,55.28-19.94,6.76-5.21,12.61-9.7,19.81-9.7,9.92,0,20.45,8.07,20.45,23C1607.09,719.4,1556,747,1511.13,747Zm49.29-139.13c-2.39-23.69-16.91-53.52-51.36-53.52-1.19,0-2.1,0-3,0-40.38,0-50.19,33.2-52.4,53.56Z" transform="translate(-103.24 -61.35)"/><path class="cls-1" d="M131.74,1131.28c-15.78,0-25.59-9.81-25.59-25.66V862.52c0-15.81,9.81-25.66,25.59-25.66h62c54.3,0,83.6,38,83.6,73.81,0,25.62-10.49,47.44-27.78,59.77a76.27,76.27,0,0,1,49.77,72c0,52.29-41.12,88.79-100,88.79h-67.6Zm66-43.41c31.08,0,52.8-18.67,52.8-45.38,0-26.91-20.57-45-51.19-45H154.94v90.36Zm-9.6-132.21c24.53,0,40.4-15.17,40.4-38.67,0-23.67-13.92-36.7-39.22-36.7H154.93v75.36h33.21Z" transform="translate(-103.24 -61.35)"/><path class="cls-1" d="M437.71,1131.29c-80.38,0-108.9-64.09-108.9-119,0-78.09,53.75-119,106.82-119,64.24,0,102.63,57.76,102.63,113.62,0,17.71-9,26.34-27.54,26.34H380c2.88,31.8,25.49,52.69,58.09,52.69,29.43,0,44.37-11.53,55.28-19.94,6.76-5.21,12.58-9.7,19.81-9.7,9.92,0,20.45,8.07,20.45,23C533.66,1103.66,482.56,1131.29,437.71,1131.29ZM487,992.15c-2.39-23.69-16.91-53.52-51.36-53.52-1.19,0-2.1,0-3,0-40.38,0-50.19,33.2-52.4,53.56Z" transform="translate(-103.24 -61.35)"/><path class="cls-1" d="M865.7,1131.29c-15.23,0-25.45-10.59-25.45-26.36V982.26c0-27.71-14.75-43.62-40.47-43.62-25.45,0-40,15.91-40,43.62v122.67c0,15.76-10.23,26.36-25.47,26.36s-25.45-10.59-25.45-26.36V982.26c0-27.71-14.75-43.62-40.47-43.62-25.45,0-40,15.91-40,43.62v122.67c0,15.76-10.23,26.36-25.45,26.36s-25.47-10.59-25.47-26.36V919.69c0-15.76,10.23-26.36,25.47-26.36,12.23,0,21.21,6.82,24.28,17.67,9.72-8.77,25.21-17.67,50.81-17.67,24.83,0,45.87,11,61.31,31.91,18.16-22,39.36-31.91,67.59-31.91,41.95,0,84.28,27.88,84.28,90.17v121.42C891.15,1120.7,880.93,1131.29,865.7,1131.29Z" transform="translate(-103.24 -61.35)"/><path class="cls-1" d="M952.87,1032a22.64,22.64,0,1,1,0-45.28h85.93a22.64,22.64,0,1,1,0,45.28Z" transform="translate(-103.24 -61.35)"/><path class="cls-1" d="M1210.65,1131.29c-80.38,0-108.9-64.09-108.9-119,0-78.09,53.73-119,106.8-119,64.26,0,102.65,57.76,102.65,113.62,0,17.71-9,26.34-27.54,26.34H1153c2.88,31.8,25.49,52.69,58.07,52.69,29.45,0,44.39-11.53,55.3-19.94,6.76-5.21,12.58-9.7,19.81-9.7,9.92,0,20.45,8.07,20.45,23C1306.61,1103.66,1255.48,1131.29,1210.65,1131.29Zm49.28-139.14c-2.39-23.69-16.93-53.52-51.38-53.52-1.17,0-2.08,0-3,0-40.36,0-50.17,33.2-52.37,53.56Z" transform="translate(-103.24 -61.35)"/><path class="cls-1" d="M1418.41,1131.29c-47.37,0-90.53-23.16-90.53-48.58,0-13.16,9.72-23.45,22.12-23.45,8.56,0,15.47,4.75,23.48,10.25,10.68,7.35,24,16.5,46.19,16.5,22.46,0,35.89-11.53,35.89-22.65,0-14.85-22.88-24.24-47.1-34.15-33.45-13.75-71.4-29.3-71.4-67.12,0-44.64,42.56-68.75,82.61-68.75,33.79,0,80.93,17.39,80.93,45.7,0,10.53-7.44,21.82-23.77,21.82-8.75,0-15.11-4.73-21.25-9.3-8.14-6.06-17.33-12.92-35.91-12.92-14.62,0-31.7,5.4-31.7,20.57,0,11.95,21.19,20,43.62,28.56,33.35,12.71,74.85,28.54,74.85,69C1506.44,1108,1460.8,1131.29,1418.41,1131.29Z" transform="translate(-103.24 -61.35)"/><path class="cls-1" d="M1586.89,1131.29c-15.23,0-25.47-10.59-25.47-26.36V941.12h-7.9c-15.7,0-25.47-8.69-25.47-22.65s9.77-22.65,25.47-22.65h7.9V855.48c0-15.76,10.23-26.34,25.47-26.34s25.45,10.57,25.45,26.34v40.34h7.92c15.7,0,25.44,8.69,25.44,22.65s-9.75,22.65-25.44,22.65h-7.92v163.82C1612.33,1120.7,1602.1,1131.29,1586.89,1131.29Z" transform="translate(-103.24 -61.35)"/><path class="cls-1" d="M1841.8,1131.29c-11.33,0-22.82-7.54-24.09-22-15.08,14.47-33.58,22-54.34,22-68.75,0-104.73-59.85-104.73-119s36-119,104.73-119c20.64,0,37.92,6.44,54.49,20.62,1.86-13.56,13-20.62,23.94-20.62,11.74,0,24.2,8.64,24.2,24.68v188.54C1866,1122.63,1853.54,1131.29,1841.8,1131.29Zm-78.43-192.65c-39.73,0-53.81,39.68-53.81,73.69s14.09,73.69,53.81,73.69,53.81-39.7,53.81-73.69S1803.09,938.64,1763.37,938.64Z" transform="translate(-103.24 -61.35)"/><path class="cls-1" d="M1944,1131.29c-15.23,0-25.47-10.59-25.47-26.36V919.69c0-15.76,10.23-26.36,25.47-26.36,14.28,0,24.15,9.32,25.34,23.47,10.89-12.37,26.42-23.47,43.9-23.47,16,0,27.56,10.74,27.56,25.53,0,9.72-5,22.2-28.75,26.65-12.88,2.2-42.61,12-42.61,55.28v104.13C1969.41,1120.7,1959.2,1131.29,1944,1131.29Z" transform="translate(-103.24 -61.35)"/></svg>