<svg width="4605" height="2009" viewBox="0 0 4605 2009" fill="none" xmlns="http://www.w3.org/2000/svg">
<path d="M855.54 607.52C855.54 705.61 776 785.15 677.91 785.15H666.07C633.36 785.15 606.85 811.68 606.85 844.37V892.74V914.44V962.81C606.85 995.5 633.35 1022.03 666.07 1022.03C819.42 1022.03 961.77 1067.54 1079.55 1145.36C1089.21 1151.76 1098.7 1158.35 1108.02 1165.17C1226.86 1244.62 1367.01 1299.16 1519.23 1320.21C1565.42 1326.61 1612.71 1329.93 1660.82 1329.93C1961.69 1329.93 2205.59 1086.03 2205.59 785.16C2205.59 490.86 1966.98 252.25 1672.66 252.25H1258.18C1225.47 252.25 1198.96 278.78 1198.96 311.47V477.26V795.46V818.02C1223.41 832.45 1247.14 847.96 1270.27 864.25C1282.37 874 1294.93 883.3 1307.92 892.13C1319.06 899.69 1330.59 906.83 1342.33 913.7C1346.23 916.48 1350.44 918.76 1354.96 920.54C1390.94 936.11 1432.14 911.11 1435.47 871.73C1435.51 871.29 1435.53 870.82 1435.55 870.37C1435.63 869.14 1435.8 867.93 1435.8 866.68V477.24H1672.65C1842.72 477.24 1980.56 615.1 1980.56 785.15C1980.56 961.74 1837.4 1104.9 1660.81 1104.9C1499.81 1104.9 1351.55 1055.96 1233.39 973.75C1225.97 968.6 1218.67 963.28 1211.48 957.86C1148.39 913.37 1079.57 876.46 1006.41 848.26C1052.83 788.24 1080.52 712.98 1080.52 631.2V607.51C1080.52 411.3 921.47 252.23 725.24 252.23H310.78C278.07 252.23 251.56 278.76 251.56 311.45V1258.86C251.56 1291.55 278.06 1318.08 310.78 1318.08H350.25H389.72H429.19C461.9 1318.08 488.41 1291.55 488.41 1258.86V477.24H725.26C797.21 477.24 855.54 535.57 855.54 607.52Z" fill="white"/>
<path d="M251.56 1456.07C251.56 1444.23 258.23 1436.81 270.59 1436.81H314.07C352.1 1436.81 375.58 1453.87 375.58 1492.64C375.58 1519.8 355.07 1535.35 329.88 1539.31L371.87 1584.25C375.32 1587.96 376.81 1591.67 376.81 1595.12C376.81 1604.76 369.14 1614.15 358.29 1614.15C353.84 1614.15 347.91 1612.41 343.95 1607.73L289.12 1541.29H288.63V1594.87C288.63 1607.22 280.73 1614.15 270.11 1614.15C259.47 1614.15 251.57 1607.22 251.57 1594.87V1456.07H251.56ZM288.62 1514.61H314.07C327.65 1514.61 337.04 1506.45 337.04 1492.64C337.04 1478.55 327.65 1470.9 314.07 1470.9H288.62V1514.61V1514.61Z" fill="white"/>
<path d="M520.549 1590.85C520.549 1600.02 520.549 1614.13 503.469 1614.13C493.069 1614.13 488.849 1608.43 486.369 1599.02C477.199 1609.91 466.049 1615.61 452.429 1615.61C418.999 1615.61 393.489 1587.13 393.489 1547.01C393.489 1507.88 419.739 1477.92 452.429 1477.92C465.569 1477.92 478.449 1483.11 486.369 1494.25C487.369 1485.58 494.779 1479.4 503.469 1479.4C520.549 1479.4 520.549 1493.51 520.549 1502.66V1590.85ZM457.389 1582.93C475.969 1582.93 484.889 1564.12 484.889 1547.02C484.889 1529.92 476.219 1510.62 457.389 1510.62C437.829 1510.62 429.149 1529.92 429.149 1547.02C429.149 1564.11 438.069 1582.93 457.389 1582.93Z" fill="white"/>
<path d="M588.67 1445.46C588.67 1456.63 579.75 1466.03 568.61 1466.03C557.95 1466.03 548.55 1456.37 548.55 1445.46C548.55 1435.31 557.96 1425.9 568.61 1425.9C579.26 1425.91 588.67 1435.08 588.67 1445.46ZM550.76 1499.21C550.76 1487.32 558.2 1479.4 568.6 1479.4C579 1479.4 586.44 1487.32 586.44 1499.21V1594.32C586.44 1606.21 579 1614.13 568.6 1614.13C558.2 1614.13 550.76 1606.21 550.76 1594.32V1499.21Z" fill="white"/>
<path d="M738.509 1590.85C738.509 1600.02 738.509 1614.13 721.409 1614.13C711.029 1614.13 706.809 1608.43 704.329 1599.02C695.159 1609.91 684.009 1615.61 670.389 1615.61C636.959 1615.61 611.449 1587.13 611.449 1547.01C611.449 1507.88 637.699 1477.92 670.389 1477.92C683.529 1477.92 696.409 1483.11 704.329 1494.25C705.329 1485.58 712.739 1479.4 721.409 1479.4C738.509 1479.4 738.509 1493.51 738.509 1502.66V1590.85ZM675.349 1582.93C693.929 1582.93 702.849 1564.12 702.849 1547.02C702.849 1529.92 694.159 1510.62 675.349 1510.62C655.769 1510.62 647.109 1529.92 647.109 1547.02C647.109 1564.11 656.029 1582.93 675.349 1582.93Z" fill="white"/>
<path d="M770.21 1455.86C770.21 1444.4 778.2 1436.66 789.41 1436.66H830.79C886.64 1436.66 918.55 1472.55 918.55 1527.89C918.55 1580.22 884.65 1614.14 833.29 1614.14H789.9C781.68 1614.14 770.22 1609.65 770.22 1595.43V1455.86H770.21ZM807.6 1579.74H832.77C864.93 1579.74 879.64 1556.05 879.64 1526.14C879.64 1494.25 864.68 1471.06 830.3 1471.06H807.6V1579.74Z" fill="white"/>
<path d="M944.319 1497.24C944.319 1485.35 953.729 1479.4 962.649 1479.4C972.059 1479.4 979.999 1482.87 979.999 1494.27H980.489C987.189 1484.35 994.369 1479.4 1005.51 1479.4C1014.18 1479.4 1022.84 1485.61 1022.84 1498.47C1022.84 1510.12 1012.18 1510.86 1001.55 1515.82C990.889 1520.76 979.999 1525.48 979.999 1539.59V1594.31C979.999 1606.2 972.559 1614.12 962.159 1614.12C951.759 1614.12 944.319 1606.2 944.319 1594.31V1497.24V1497.24Z" fill="white"/>
<path d="M1155.89 1547.02C1155.89 1584.16 1130.38 1615.62 1091.99 1615.62C1053.6 1615.62 1028.07 1584.16 1028.07 1547.02C1028.07 1510.85 1054.34 1477.91 1091.99 1477.91C1129.64 1477.91 1155.89 1510.85 1155.89 1547.02ZM1063.75 1547.02C1063.75 1564.12 1072.67 1582.93 1091.99 1582.93C1111.31 1582.93 1120.23 1564.12 1120.23 1547.02C1120.23 1529.92 1111.56 1510.62 1091.99 1510.62C1072.42 1510.62 1063.75 1529.92 1063.75 1547.02Z" fill="white"/>
<path d="M1303.27 1602.24C1303.27 1645.08 1275.28 1666.63 1234.65 1666.63C1220.03 1666.63 1178.42 1659.45 1178.42 1639.89C1178.42 1633.19 1185.86 1624.3 1192.78 1624.3C1204.18 1624.3 1216.81 1635.42 1237.38 1635.42C1254.71 1635.42 1267.59 1625.27 1267.59 1607.2V1598.77H1267.1C1259.66 1609.68 1247.52 1615.61 1231.19 1615.61C1193.77 1615.61 1176.19 1582.69 1176.19 1547.26C1176.19 1511.35 1198.99 1477.92 1234.9 1477.92C1247.04 1477.92 1260.92 1483.37 1267.59 1494.26C1269.81 1484.85 1275.51 1479.41 1285.43 1479.41C1295.83 1479.41 1303.27 1487.33 1303.27 1499.22V1602.24V1602.24ZM1239.61 1510.61C1221.03 1510.61 1211.88 1529.93 1211.88 1546.52C1211.88 1565.59 1221.03 1582.92 1239.61 1582.92C1258.68 1582.92 1267.6 1565.1 1267.6 1547.75C1267.6 1530.42 1259.18 1510.61 1239.61 1510.61Z" fill="white"/>
<path d="M1455.83 1590.85C1455.83 1600.02 1455.83 1614.13 1438.73 1614.13C1428.35 1614.13 1424.13 1608.43 1421.65 1599.02C1412.48 1609.91 1401.33 1615.61 1387.71 1615.61C1354.28 1615.61 1328.77 1587.13 1328.77 1547.01C1328.77 1507.88 1355.02 1477.92 1387.71 1477.92C1400.85 1477.92 1413.73 1483.11 1421.65 1494.25C1422.65 1485.58 1430.06 1479.4 1438.73 1479.4C1455.83 1479.4 1455.83 1493.51 1455.83 1502.66V1590.85ZM1392.67 1582.93C1411.25 1582.93 1420.17 1564.12 1420.17 1547.02C1420.17 1529.92 1411.48 1510.62 1392.67 1510.62C1373.09 1510.62 1364.43 1529.92 1364.43 1547.02C1364.43 1564.11 1373.35 1582.93 1392.67 1582.93Z" fill="white"/>
<path d="M1561.59 1519.52C1554.89 1519.52 1541.27 1509.12 1529.64 1509.12C1523.2 1509.12 1517.5 1512.11 1517.5 1519.04C1517.5 1535.63 1579.43 1533.15 1579.43 1573.77C1579.43 1597.54 1559.37 1615.63 1528.65 1615.63C1508.59 1615.63 1478.86 1604.23 1478.86 1588.13C1478.86 1582.69 1484.31 1572.28 1494.22 1572.28C1508.1 1572.28 1514.28 1584.42 1531.13 1584.42C1542.02 1584.42 1545.24 1580.95 1545.24 1574.27C1545.24 1557.91 1483.33 1560.39 1483.33 1519.52C1483.33 1494.75 1503.37 1477.91 1531.61 1477.91C1549.22 1477.91 1576.21 1486.09 1576.21 1503.67C1576.21 1511.85 1570 1519.52 1561.59 1519.52Z" fill="white"/>
<path d="M1639.86 1445.46C1639.86 1456.63 1630.94 1466.03 1619.8 1466.03C1609.14 1466.03 1599.74 1456.37 1599.74 1445.46C1599.74 1435.31 1609.15 1425.9 1619.8 1425.9C1630.46 1425.91 1639.86 1435.08 1639.86 1445.46ZM1601.96 1499.21C1601.96 1487.32 1609.4 1479.4 1619.8 1479.4C1630.2 1479.4 1637.62 1487.32 1637.62 1499.21V1594.32C1637.62 1606.21 1630.2 1614.13 1619.8 1614.13C1609.4 1614.13 1601.96 1606.21 1601.96 1594.32V1499.21Z" fill="white"/>
<path d="M1667.34 1441.76C1667.34 1429.87 1674.78 1421.95 1685.18 1421.95C1695.58 1421.95 1703.02 1429.87 1703.02 1441.76V1594.33C1703.02 1606.22 1695.58 1614.14 1685.18 1614.14C1674.78 1614.14 1667.34 1606.22 1667.34 1594.33V1441.76Z" fill="white"/>
<path d="M1900.56 1460.7C1900.56 1470.19 1894.22 1478.73 1884.25 1478.73C1874.25 1478.73 1866.45 1471.42 1851.83 1471.42C1841.36 1471.42 1831.85 1477.01 1831.85 1487.25C1831.85 1512.33 1913.23 1496.28 1913.23 1559.12C1913.23 1593.95 1884.48 1615.62 1850.86 1615.62C1832.11 1615.62 1791.66 1611.23 1791.66 1588.35C1791.66 1578.84 1798 1571.04 1807.99 1571.04C1819.43 1571.04 1833.07 1580.53 1848.9 1580.53C1864.98 1580.53 1873.75 1571.53 1873.75 1559.6C1873.75 1530.85 1792.37 1548.16 1792.37 1491.63C1792.37 1457.52 1820.4 1436.33 1852.79 1436.33C1866.45 1436.33 1900.56 1441.46 1900.56 1460.7Z" fill="white"/>
<path d="M1945.98 1575.51C1956.64 1575.51 1965.3 1584.18 1965.3 1594.83C1965.3 1605.47 1956.63 1614.13 1945.98 1614.13C1935.32 1614.13 1926.66 1605.46 1926.66 1594.83C1926.66 1584.18 1935.32 1575.51 1945.98 1575.51Z" fill="white"/>
<path d="M2044.74 1456.71C2048.87 1445.52 2058.34 1436.52 2070.76 1436.52C2083.64 1436.52 2092.65 1445.04 2096.78 1456.71L2144.43 1588.96C2145.89 1592.86 2146.38 1596.25 2146.38 1597.96C2146.38 1607.43 2138.6 1614 2129.6 1614C2119.39 1614 2114.28 1608.66 2111.85 1601.35L2104.56 1578.51H2036.95L2029.66 1601.12C2027.24 1608.66 2022.12 1614 2012.16 1614C2002.44 1614 1994.17 1606.71 1994.17 1596.99C1994.17 1593.09 1995.38 1590.17 1995.86 1588.96L2044.74 1456.71ZM2047.41 1544.95H2093.62L2070.99 1474.44H2070.5L2047.41 1544.95Z" fill="white"/>
<path d="M2186.23 1575.51C2196.89 1575.51 2205.55 1584.18 2205.55 1594.83C2205.55 1605.47 2196.88 1614.13 2186.23 1614.13C2175.57 1614.13 2166.91 1605.46 2166.91 1594.83C2166.91 1584.18 2175.57 1575.51 2186.23 1575.51Z" fill="white"/>
<path d="M4247.01 1318.58C4231.35 1318.58 4218.64 1306.04 4218.64 1290.59C4218.64 1275.14 4231.35 1262.58 4247.01 1262.58C4262.65 1262.58 4275.38 1275.14 4275.38 1290.59C4275.38 1306.04 4262.64 1318.58 4247.01 1318.58Z" fill="white"/>
<path d="M2454.1 550.39C2413.97 550.39 2380.16 534.37 2356.28 504.05C2335.09 477.16 2323.44 440.85 2323.44 401.8C2323.44 327.86 2365.43 253.24 2459.27 253.24C2519.4 253.24 2562.94 283.92 2562.94 304.6C2562.94 317.78 2552.85 327.71 2539.49 327.71C2530.85 327.71 2523.73 322.65 2515.46 316.78C2502.68 307.69 2486.75 296.38 2456.88 296.38C2399.82 296.38 2374.27 349.33 2374.27 401.81C2374.27 450.45 2396.33 507.28 2458.49 507.28C2512.88 507.28 2533.13 459.91 2533.13 430.05V420.24H2490.65C2476.16 420.24 2466.81 411.32 2466.81 397.51C2466.81 383.7 2476.15 374.78 2490.65 374.78H2549.42C2571.96 374.78 2581.6 385.2 2581.6 409.65C2581.6 501.72 2537.51 550.39 2454.1 550.39Z" fill="white"/>
<path d="M2727.67 550.39C2647.29 550.39 2618.77 486.3 2618.77 431.41C2618.77 353.32 2672.5 312.45 2725.59 312.45C2789.83 312.45 2828.22 370.21 2828.22 426.07C2828.22 443.8 2819.19 452.41 2800.68 452.41H2670C2672.88 484.21 2695.49 505.1 2728.09 505.1C2757.52 505.1 2772.46 493.57 2783.37 485.16C2790.13 479.95 2795.95 475.46 2803.18 475.46C2813.1 475.46 2823.63 483.53 2823.63 498.51C2823.62 522.74 2772.52 550.39 2727.67 550.39ZM2776.95 411.24C2774.56 387.55 2760.04 357.74 2725.59 357.74C2724.4 357.7 2723.49 357.68 2722.6 357.68C2682.22 357.68 2672.41 390.88 2670.2 411.24H2776.95Z" fill="white"/>
<path d="M3040.55 550.39C3025.32 550.39 3015.1 539.8 3015.1 524.03V404.66C3015.1 370.02 2991.26 357.73 2970.88 357.73C2950.48 357.73 2926.66 370.02 2926.66 404.66V524.03C2926.66 539.79 2916.43 550.39 2901.19 550.39C2885.98 550.39 2875.74 539.8 2875.74 524.03V338.79C2875.74 323.03 2885.97 312.43 2901.19 312.43C2914.22 312.43 2923.56 320.18 2926.02 332.26C2941.08 319.38 2960.36 312.43 2981.7 312.43C3023.65 312.43 3065.98 340.31 3065.98 402.6V524.02C3065.99 539.79 3055.78 550.39 3040.55 550.39Z" fill="white"/>
<path d="M3151.5 550.39C3136.27 550.39 3126.05 539.8 3126.05 524.03V360.21H3118.13C3102.43 360.21 3092.68 351.52 3092.68 337.56C3092.68 323.6 3102.43 314.91 3118.13 314.91H3126.05V274.57C3126.05 258.81 3136.26 248.23 3151.5 248.23C3166.73 248.23 3176.95 258.8 3176.95 274.57V314.91H3184.87C3200.57 314.91 3210.34 323.6 3210.34 337.56C3210.34 351.52 3200.57 360.21 3184.87 360.21H3176.95V524.03C3176.94 539.79 3166.73 550.39 3151.5 550.39Z" fill="white"/>
<path d="M3332.55 550.39C3252.17 550.39 3223.65 486.3 3223.65 431.41C3223.65 353.32 3277.38 312.45 3330.45 312.45C3394.71 312.45 3433.1 370.21 3433.1 426.07C3433.1 443.8 3424.1 452.41 3405.56 452.41H3274.88C3277.76 484.21 3300.37 505.1 3332.95 505.1C3362.4 505.1 3377.34 493.57 3388.25 485.16C3395.01 479.95 3400.83 475.46 3408.06 475.46C3417.98 475.46 3428.51 483.53 3428.51 498.51C3428.5 522.74 3377.38 550.39 3332.55 550.39ZM3381.83 411.24C3379.44 387.55 3364.92 357.74 3330.45 357.74C3329.28 357.7 3328.37 357.68 3327.46 357.68C3287.1 357.68 3277.29 390.88 3275.09 411.24H3381.83Z" fill="white"/>
<path d="M3462.68 599.78C3449.57 599.78 3438.89 589.63 3438.89 577.15C3438.89 571.51 3440.39 566.37 3444.23 558.78L3467.62 513.44C3471.45 506.26 3477.79 494.39 3493.55 494.39C3506.66 494.39 3517.34 504.54 3517.34 517.04C3517.34 522.68 3515.84 527.8 3512 535.39L3488.61 580.73C3484.78 587.89 3478.46 599.78 3462.68 599.78Z" fill="white"/>
<path d="M2407.79 933.92C2366.22 933.92 2321.35 918.28 2321.35 893.05C2321.35 878.58 2330.27 868.45 2343.07 868.45C2349.34 868.45 2355.1 871.78 2362.41 876.01C2373.41 882.37 2387.11 890.27 2408.19 890.27C2438.72 890.27 2460.06 869.4 2460.06 839.51C2460.06 814.72 2439.09 806.35 2404.87 794.7C2368.92 782.5 2324.17 767.28 2324.17 712.56C2324.17 674.23 2360.84 633.22 2415.44 633.22C2452.71 633.22 2492.62 649.15 2492.62 672.88C2492.62 685.34 2482.92 695.11 2470.52 695.11C2462.24 695.11 2456.22 691.3 2450.43 687.61C2442.46 682.59 2433.44 676.87 2414.2 676.87C2391.49 676.87 2375.62 690.56 2375.62 710.18C2375.62 732.15 2395.62 740.22 2428.27 751.56C2465.37 764.46 2511.51 780.52 2511.51 837.94C2511.52 900.95 2459.34 933.92 2407.79 933.92Z" fill="white"/>
<path d="M2732.26 933.92C2720.93 933.92 2709.44 926.38 2708.17 911.91C2693.09 926.38 2674.59 933.92 2653.83 933.92C2585.08 933.92 2549.1 874.07 2549.1 814.96C2549.1 755.83 2585.07 696 2653.83 696C2674.47 696 2691.75 702.44 2708.34 716.62C2710.18 703.06 2721.28 696 2732.26 696C2744 696 2756.46 704.64 2756.46 720.68V909.22C2756.46 925.25 2744 933.92 2732.26 933.92ZM2653.83 741.26C2614.1 741.26 2600.02 780.94 2600.02 814.95C2600.02 848.93 2614.11 888.64 2653.83 888.64C2693.56 888.64 2707.64 848.94 2707.64 814.95C2707.64 780.95 2693.55 741.26 2653.83 741.26Z" fill="white"/>
<path d="M2899.95 933.91C2829.82 933.91 2804.84 885.22 2804.84 839.63V722.32C2804.84 706.58 2815.05 695.99 2830.29 695.99C2845.5 695.99 2855.74 706.58 2855.74 722.32V838.4C2855.74 872.66 2869.79 888.63 2899.96 888.63C2930.13 888.63 2944.18 872.66 2944.18 838.4V722.32C2944.18 706.58 2954.41 695.99 2969.63 695.99C2984.86 695.99 2995.1 706.58 2995.1 722.32V839.63C2995.08 885.23 2970.1 933.91 2899.95 933.91ZM2869.5 681.58C2854.52 681.58 2846.55 667.47 2846.55 657.28C2846.55 650.75 2849.86 641.67 2865.66 635.54L2913.52 616.24C2921.4 613.04 2925.49 612 2930.41 612C2945.37 612 2953.35 626.11 2953.35 636.3C2953.35 642.85 2950.02 651.91 2934.24 658.04L2886.36 677.36C2878.61 680.5 2874.35 681.58 2869.5 681.58Z" fill="white"/>
<path d="M3214.08 933.92C3201.62 933.92 3192.51 926.82 3189.61 915.61C3176.96 927.77 3158.89 933.92 3135.65 933.92C3085.06 933.92 3033.85 893.05 3033.85 814.96C3033.85 736.84 3085.06 696 3135.65 696C3157.94 696 3176.07 704.73 3188.64 715.49V626.02C3188.64 610.26 3198.85 599.66 3214.09 599.66C3229.32 599.66 3239.54 610.25 3239.54 626.02V907.57C3239.52 923.32 3229.31 933.92 3214.08 933.92ZM3138.57 741.26C3098.84 741.26 3084.76 780.94 3084.76 814.95C3084.76 848.93 3098.85 888.64 3138.57 888.64C3178.29 888.64 3192.38 848.94 3192.38 814.95C3192.38 780.95 3178.29 741.26 3138.57 741.26Z" fill="white"/>
<path d="M3392.2 933.91C3311.82 933.91 3283.32 869.82 3283.32 814.95C3283.32 736.86 3337.05 695.99 3390.12 695.99C3454.36 695.99 3492.75 753.75 3492.75 809.61C3492.75 827.32 3483.75 835.95 3465.21 835.95H3334.53C3337.41 867.75 3360.02 888.64 3392.62 888.64C3422.05 888.64 3436.99 877.11 3447.9 868.7C3454.66 863.49 3460.51 859 3467.71 859C3477.63 859 3488.16 867.07 3488.16 882.05C3488.15 906.28 3437.05 933.91 3392.2 933.91ZM3441.48 794.78C3439.09 771.09 3424.57 741.26 3390.12 741.26C3388.93 741.24 3388.02 741.22 3387.13 741.22C3346.75 741.22 3336.94 774.42 3334.73 794.78H3441.48Z" fill="white"/>
<path d="M3729.24 933.91C3648.86 933.91 3620.34 869.82 3620.34 814.95C3620.34 736.86 3674.09 695.99 3727.16 695.99C3791.4 695.99 3829.79 753.75 3829.79 809.61C3829.79 827.32 3820.79 835.95 3802.25 835.95H3671.57C3674.45 867.75 3697.06 888.64 3729.66 888.64C3759.09 888.64 3774.03 877.11 3784.94 868.7C3791.7 863.49 3797.55 859 3804.75 859C3814.67 859 3825.2 867.07 3825.2 882.05C3825.2 906.28 3774.1 933.91 3729.24 933.91ZM3778.53 794.78C3776.14 771.09 3761.62 741.26 3727.17 741.26C3725.98 741.24 3725.07 741.22 3724.18 741.22C3683.8 741.22 3673.99 774.42 3671.78 794.78H3778.53Z" fill="white"/>
<path d="M2349.85 1318.16C2334.07 1318.16 2324.26 1308.35 2324.26 1292.5V1049.4C2324.26 1033.59 2334.07 1023.74 2349.85 1023.74H2411.84C2466.14 1023.74 2495.44 1061.77 2495.44 1097.55C2495.44 1123.17 2484.95 1144.99 2467.66 1157.32C2496.98 1168 2517.43 1196.32 2517.43 1229.35C2517.43 1281.64 2476.31 1318.14 2417.45 1318.14H2349.85V1318.16ZM2415.85 1274.75C2446.93 1274.75 2468.65 1256.08 2468.65 1229.37C2468.65 1202.46 2448.08 1184.39 2417.46 1184.39H2373.05V1274.75H2415.85V1274.75ZM2406.25 1142.54C2430.78 1142.54 2446.65 1127.37 2446.65 1103.87C2446.65 1080.2 2432.73 1067.17 2407.43 1067.17H2373.04V1142.53H2406.25V1142.54Z" fill="white"/>
<path d="M2655.82 1318.17C2575.44 1318.17 2546.92 1254.08 2546.92 1199.21C2546.92 1121.12 2600.67 1080.25 2653.74 1080.25C2717.98 1080.25 2756.37 1138.01 2756.37 1193.87C2756.37 1211.58 2747.34 1220.21 2728.83 1220.21H2598.15C2601.03 1252.01 2623.64 1272.9 2656.24 1272.9C2685.67 1272.9 2700.61 1261.37 2711.52 1252.96C2718.28 1247.75 2724.1 1243.26 2731.33 1243.26C2741.25 1243.26 2751.78 1251.33 2751.78 1266.31C2751.77 1290.54 2700.67 1318.17 2655.82 1318.17ZM2705.1 1179.03C2702.71 1155.34 2688.19 1125.51 2653.74 1125.51C2652.55 1125.49 2651.64 1125.47 2650.75 1125.47C2610.37 1125.47 2600.56 1158.67 2598.35 1179.03H2705.1Z" fill="white"/>
<path d="M3083.81 1318.17C3068.58 1318.17 3058.36 1307.58 3058.36 1291.81V1169.14C3058.36 1141.43 3043.61 1125.52 3017.89 1125.52C2992.44 1125.52 2977.85 1141.43 2977.85 1169.14V1291.81C2977.85 1307.57 2967.62 1318.17 2952.38 1318.17C2937.17 1318.17 2926.93 1307.58 2926.93 1291.81V1169.14C2926.93 1141.43 2912.18 1125.52 2886.46 1125.52C2861.01 1125.52 2846.42 1141.43 2846.42 1169.14V1291.81C2846.42 1307.57 2836.19 1318.17 2820.97 1318.17C2805.74 1318.17 2795.5 1307.58 2795.5 1291.81V1106.57C2795.5 1090.81 2805.73 1080.21 2820.97 1080.21C2833.2 1080.21 2842.18 1087.03 2845.25 1097.88C2854.97 1089.11 2870.46 1080.21 2896.06 1080.21C2920.89 1080.21 2941.93 1091.21 2957.37 1112.12C2975.53 1090.13 2996.73 1080.21 3024.96 1080.21C3066.91 1080.21 3109.24 1108.09 3109.24 1170.38V1291.8C3109.26 1307.58 3099.04 1318.17 3083.81 1318.17Z" fill="white"/>
<path d="M3170.98 1218.89C3158.33 1218.89 3148.03 1208.72 3148.03 1196.24C3148.03 1183.76 3158.33 1173.61 3170.98 1173.61H3256.91C3269.56 1173.61 3279.85 1183.76 3279.85 1196.24C3279.85 1208.72 3269.55 1218.89 3256.91 1218.89H3170.98Z" fill="white"/>
<path d="M3428.76 1318.17C3348.38 1318.17 3319.86 1254.08 3319.86 1199.21C3319.86 1121.12 3373.59 1080.25 3426.66 1080.25C3490.92 1080.25 3529.31 1138.01 3529.31 1193.87C3529.31 1211.58 3520.31 1220.21 3501.77 1220.21H3371.09C3373.97 1252.01 3396.58 1272.9 3429.16 1272.9C3458.61 1272.9 3473.55 1261.37 3484.46 1252.96C3491.22 1247.75 3497.04 1243.26 3504.27 1243.26C3514.19 1243.26 3524.72 1251.33 3524.72 1266.31C3524.72 1290.54 3473.59 1318.17 3428.76 1318.17ZM3478.04 1179.03C3475.65 1155.34 3461.11 1125.51 3426.66 1125.51C3425.49 1125.49 3424.58 1125.47 3423.67 1125.47C3383.31 1125.47 3373.5 1158.67 3371.3 1179.03H3478.04Z" fill="white"/>
<path d="M3636.52 1318.17C3589.15 1318.17 3545.99 1295.01 3545.99 1269.59C3545.99 1256.43 3555.71 1246.14 3568.11 1246.14C3576.67 1246.14 3583.58 1250.89 3591.59 1256.39C3602.27 1263.74 3615.55 1272.89 3637.78 1272.89C3660.24 1272.89 3673.67 1261.36 3673.67 1250.24C3673.67 1235.39 3650.79 1226 3626.57 1216.09C3593.12 1202.34 3555.17 1186.79 3555.17 1148.97C3555.17 1104.33 3597.73 1080.22 3637.78 1080.22C3671.57 1080.22 3718.71 1097.61 3718.71 1125.92C3718.71 1136.45 3711.27 1147.74 3694.94 1147.74C3686.19 1147.74 3679.83 1143.01 3673.69 1138.44C3665.55 1132.38 3656.36 1125.52 3637.78 1125.52C3623.16 1125.52 3606.08 1130.92 3606.08 1146.09C3606.08 1158.04 3627.27 1166.11 3649.7 1174.65C3683.05 1187.36 3724.55 1203.19 3724.55 1243.66C3724.55 1294.84 3678.91 1318.17 3636.52 1318.17Z" fill="white"/>
<path d="M3805 1318.17C3789.77 1318.17 3779.53 1307.58 3779.53 1291.81V1128H3771.63C3755.93 1128 3746.16 1119.31 3746.16 1105.35C3746.16 1091.39 3755.93 1082.7 3771.63 1082.7H3779.53V1042.36C3779.53 1026.6 3789.76 1016.02 3805 1016.02C3820.21 1016.02 3830.45 1026.59 3830.45 1042.36V1082.7H3838.37C3854.07 1082.7 3863.81 1091.39 3863.81 1105.35C3863.81 1119.31 3854.06 1128 3838.37 1128H3830.45V1291.82C3830.44 1307.58 3820.21 1318.17 3805 1318.17Z" fill="white"/>
<path d="M4059.91 1318.17C4048.58 1318.17 4037.09 1310.63 4035.82 1296.16C4020.74 1310.63 4002.24 1318.17 3981.48 1318.17C3912.73 1318.17 3876.75 1258.32 3876.75 1199.21C3876.75 1140.08 3912.73 1080.25 3981.48 1080.25C4002.12 1080.25 4019.4 1086.69 4035.97 1100.87C4037.83 1087.31 4048.94 1080.25 4059.91 1080.25C4071.65 1080.25 4084.11 1088.89 4084.11 1104.93V1293.47C4084.11 1309.51 4071.65 1318.17 4059.91 1318.17ZM3981.48 1125.52C3941.75 1125.52 3927.67 1165.2 3927.67 1199.21C3927.67 1233.19 3941.76 1272.9 3981.48 1272.9C4021.2 1272.9 4035.29 1233.2 4035.29 1199.21C4035.29 1165.2 4021.2 1125.52 3981.48 1125.52Z" fill="white"/>
<path d="M4162.08 1318.17C4146.85 1318.17 4136.61 1307.58 4136.61 1291.81V1106.57C4136.61 1090.81 4146.84 1080.21 4162.08 1080.21C4176.36 1080.21 4186.23 1089.53 4187.42 1103.68C4198.31 1091.31 4213.84 1080.21 4231.32 1080.21C4247.29 1080.21 4258.88 1090.95 4258.88 1105.74C4258.88 1115.46 4253.88 1127.94 4230.13 1132.39C4217.25 1134.59 4187.52 1144.34 4187.52 1187.67V1291.8C4187.52 1307.58 4177.31 1318.17 4162.08 1318.17Z" fill="white"/>
</svg>
