<svg width="40" height="28" viewBox="0 0 40 28" fill="none" xmlns="http://www.w3.org/2000/svg">
<path d="M39.0036 23.1367C39.2199 23.5639 39.1422 24.0812 38.8098 24.4259C38.4774 24.7705 37.9633 24.867 37.5285 24.6664L31.905 22.0709C27.1787 19.8896 22.0209 18.8917 16.872 19.1264C16.8109 20.7798 16.7201 22.4324 16.5998 24.0834L16.4458 26.1961C16.3523 27.4778 14.9232 28.1943 13.8403 27.5023C9.14006 24.499 5.05393 20.6291 1.79971 16.0989L0.764286 14.6575C0.482543 14.2653 0.482543 13.737 0.764286 13.3448L1.7997 11.9034C5.05393 7.37329 9.14006 3.50339 13.8403 0.500044C14.9232 -0.191911 16.3523 0.524574 16.4458 1.80628L16.5998 3.91894C16.7031 5.33612 16.7846 6.75449 16.8443 8.17354H18.2912C26.3484 8.17354 33.721 12.7042 37.3609 19.8924L39.0036 23.1367Z" fill="#187330"/>
</svg>
