<svg width="32" height="32" viewBox="0 0 32 32" fill="none" xmlns="http://www.w3.org/2000/svg">
<path d="M14.4 14.4C14.4 12.6326 15.8326 11.2 17.6 11.2C19.3673 11.2 20.8 12.6326 20.8 14.4C20.8 16.1673 19.3673 17.6 17.6 17.6C16.7159 17.6 15.918 17.2435 15.3372 16.6627C14.7564 16.0819 14.4 15.284 14.4 14.4Z" fill="#6F6F6F"/>
<path fill-rule="evenodd" clip-rule="evenodd" d="M16 28.7999C23.0692 28.7999 28.7999 23.0692 28.7999 16C28.7999 8.93071 23.0692 3.19995 16 3.19995C8.93071 3.19995 3.19995 8.93071 3.19995 16C3.19995 23.0692 8.93071 28.7999 16 28.7999ZM17.6 7.99995C14.0653 7.99995 11.2 10.8653 11.2 14.4C11.2 15.5862 11.5236 16.6982 12.0863 17.6509L8.46858 21.2686C7.84374 21.8934 7.84374 22.9065 8.46858 23.5313C9.09342 24.1562 10.1065 24.1562 10.7313 23.5313L14.349 19.9136C15.3017 20.4763 16.4137 20.8 17.6 20.8C21.1346 20.8 23.9999 17.9346 23.9999 14.4C23.9999 10.8653 21.1346 7.99995 17.6 7.99995Z" fill="#6F6F6F"/>
</svg>
